<svg id="Layer_1" data-name="Layer 1" xmlns="http://www.w3.org/2000/svg" xmlns:xlink="http://www.w3.org/1999/xlink" viewBox="0 0 253.09 67.53"><defs><style>.cls-1{fill:none;}.cls-2{fill:#ff5a64;}.cls-3{clip-path:url(#clip-path);}.cls-4{fill:#fff;}</style><clipPath id="clip-path" transform="translate(0 0)"><rect class="cls-1" width="253.09" height="67.53"/></clipPath></defs><title>logowiz</title><rect class="cls-2" width="253.09" height="67.53"/><g class="cls-3"><path class="cls-4" d="M50.74,34.86c0,7.38-3.81,14.08-12.33,14.08A12.58,12.58,0,0,1,30,45.69a11.48,11.48,0,0,1-8.45,3.25,12.11,12.11,0,0,1-10.33-5.57c-1.5-2.69-1.94-4.82-1.94-8.89V19.27h7.76V34.61c0,2.81.56,6.69,4.57,6.69,3.57,0,4.57-3.5,4.57-6.25V19.27h7.7v15.9c0,2.82.87,6.13,4.57,6.13s4.57-3.88,4.57-6.69V19.27h7.69Z" transform="translate(0 0)"/><path class="cls-4" d="M61.51,15.77a4.39,4.39,0,1,1,0-8.77,4.29,4.29,0,0,1,4.38,4.39,4.35,4.35,0,0,1-4.38,4.38m-3.82,3.44h7.7V48.38h-7.7Z" transform="translate(0 0)"/><path class="cls-4" d="M75,48.38c-5.57,0-5.07-4.88-3.07-7.51L83,26.85H71.14V19.27H91.36c2.88,0,4.32,3.13,2.38,5.76L81.47,40.8h13v7.58Z" transform="translate(0 0)"/><path class="cls-4" d="M112.64,62.4c-2.69,0-6.83-.75-12.4-3.32l3.07-6.95c4.57,2.44,7.39,2.94,9.08,2.94,4.75,0,8-2,8-6.82V46.94A14.54,14.54,0,0,1,113,48.82a14.84,14.84,0,0,1-14.71-15,14.86,14.86,0,0,1,14.78-15A15,15,0,0,1,126,26c1.75,2.94,2.13,5.38,2.13,9.45V47.69c0,10-7.32,14.71-15.52,14.71m.56-36a7.22,7.22,0,0,0-7.13,7.38,7.24,7.24,0,0,0,7.13,7.45,7.42,7.42,0,0,0,0-14.83" transform="translate(0 0)"/><path class="cls-4" d="M160.7,34.86c0,7.38-4.44,14.08-12.95,14.08-4.2,0-8.77-2.06-11-5.57-1.56-2.57-1.94-4.82-1.94-8.89V19.27h7.77V34.61c0,2.94,1.19,6.69,5.19,6.69,3.76,0,5.2-3.88,5.2-6.69V19.27h7.69Z" transform="translate(0 0)"/><path class="cls-4" d="M171.84,15.77a4.39,4.39,0,0,1,0-8.77,4.28,4.28,0,0,1,4.38,4.39,4.35,4.35,0,0,1-4.38,4.38M168,19.21h7.7V48.38H168Z" transform="translate(0 0)"/><path class="cls-4" d="M211.27,31.73c0,4.44-.44,6.88-2.13,9.83a15,15,0,1,1-12.95-22.79,15.34,15.34,0,0,1,7.38,1.82V5.13h7.7Zm-7.76,2.19a7.23,7.23,0,1,0-14.46-.19,7.23,7.23,0,1,0,14.46.19" transform="translate(0 0)"/><path class="cls-4" d="M224.85,37.11a6.94,6.94,0,0,0,6.2,4.07,7.61,7.61,0,0,0,5.63-2.57l6.26,4.51A15.22,15.22,0,0,1,231,48.82a14.53,14.53,0,0,1-5.89-1.26,15.07,15.07,0,0,1,6.14-28.79,14.61,14.61,0,0,1,8.2,2.44,14.82,14.82,0,0,1,6.76,12.65,14.42,14.42,0,0,1-.38,3.25Zm12.71-6.63a7.1,7.1,0,0,0-6.32-4.13,7.19,7.19,0,0,0-6.39,4.13Z" transform="translate(0 0)"/></g></svg>